Coordinates
version=1
nRows=24
nColumns=24
inDegrees=yes

Units are S.I. units (second, meters, Newtons, ...)
Angles are in degrees.

endheader
time	pelvis_tilt	pelvis_list	pelvis_rotation	pelvis_tx	pelvis_ty	pelvis_tz	hip_flexion_r	hip_adduction_r	hip_rotation_r	knee_angle_r	ankle_angle_r	subtalar_angle_r	mtp_angle_r	hip_flexion_l	hip_adduction_l	hip_rotation_l	knee_angle_l	ankle_angle_l	subtalar_angle_l	mtp_angle_l	lumbar_extension	lumbar_bending	lumbar_rotation
      0.44200000	     -1.75137521	      3.89203371	     -1.99303881	     -0.79092292	      1.05696758	      0.30849150	     22.88763679	     -0.48957346	     -6.48689831	     -1.32549287	      1.90734619	     -2.83669165	      0.04075964	     -8.14528145	      8.60412316	     -0.70380768	    -10.19727457	      9.32454293	     -4.31866300	      0.23107216	      1.83778956	     -1.09853732	     -0.59883403
      0.44616667	     -1.72228715	      3.92590930	     -1.99661220	     -0.78517436	      1.05666328	      0.30854060	     22.82780287	     -0.49954648	     -6.38906760	     -1.60706624	      1.87034046	     -2.75550354	      0.04792402	     -8.16453225	      8.60601521	     -0.75904403	    -10.89589134	      9.19954102	     -4.26697648	      0.23448556	      1.85406490	     -1.13175684	     -0.61715141
      0.45033333	     -1.71586356	      3.96755781	     -2.20857401	     -0.77927634	      1.05623730	      0.30902069	     22.84682059	     -0.41873029	     -6.21955481	     -2.03438434	      1.94448715	     -2.46197135	      0.09424261	     -8.13466324	      8.62164953	     -1.25478089	    -11.61263598	      8.98341884	     -3.68673252	      0.27734294	      1.81558987	     -1.32186745	     -0.73863900
      0.45450000	     -1.66256913	      3.94992756	     -2.17846969	     -0.77325947	      1.05604616	      0.30903461	     22.72161410	     -0.39203274	     -6.12561121	     -2.36898406	      1.93674835	     -2.41687826	      0.10249786	     -8.14595721	      8.54806164	     -1.36989917	    -12.41357553	      8.94643129	     -3.63480355	      0.28642099	      1.87006302	     -1.25943831	     -0.75161559
      0.45866667	     -1.61286727	      3.91576493	     -2.35162505	     -0.76710124	      1.05577666	      0.30971536	     22.61506055	     -0.22855276	     -5.78706552	     -2.76940719	      2.05008341	     -2.29656676	      0.18740878	     -8.11228364	      8.43230626	     -2.07094765	    -13.28385785	      9.03784902	     -2.47438368	      0.41328660	      1.81909039	     -1.31199770	     -0.83426621
      0.46283333	     -1.56338084	      3.90075363	     -2.37056608	     -0.76105642	      1.05557972	      0.30984874	     22.51836066	     -0.18099963	     -5.72748687	     -3.21869364	      1.99037131	     -2.33215340	      0.21080928	     -8.04978370	      8.34729853	     -2.36883331	    -14.21230900	      8.96590037	     -2.27946409	      0.45173643	      1.74774749	     -1.23059859	     -0.85392528
      0.46700000	     -1.43876926	      3.90553111	     -2.54861472	     -0.75504103	      1.05542777	      0.31034406	     22.35239583	     -0.08769863	     -5.37645911	     -3.68466055	      1.86280250	     -2.42824982	      0.27621917	     -8.03934317	      8.28253249	     -2.90737956	    -15.16434116	      8.79746591	     -1.41048139	      0.57375734	      1.72290883	     -1.24425718	     -0.86872617
      0.47116667	     -1.34244943	      3.87560791	     -2.48420851	     -0.74893002	      1.05537864	      0.31031420	     22.15245615	     -0.07333208	     -5.24462729	     -4.09523148	      1.80729799	     -2.40822377	      0.28559234	     -7.97590714	      8.16095513	     -3.05606666	    -16.20775057	      8.71563319	     -1.35894774	      0.59022162	      1.78184950	     -1.17386428	     -0.86659314
      0.47533333	     -1.25781583	      3.82149987	     -2.65432453	     -0.74275484	      1.05524291	      0.31122646	     21.95938405	      0.12157401	     -4.66264470	     -4.47537559	      1.51661336	     -2.75530093	      0.38423161	     -7.84680169	      7.95898059	     -3.83710279	    -17.32868411	      8.47883739	     -0.02544799	      0.81465679	      1.65917669	     -1.24998411	     -0.84647092
      0.47950000	     -1.16882808	      3.76877673	     -2.71999017	     -0.73663929	      1.05515963	      0.31181169	     21.75682332	      0.25415831	     -4.25404931	     -4.87362615	      1.21616527	     -3.47491021	      0.56916630	     -7.68895892	      7.75744739	     -4.37984711	    -18.53757246	      8.53122583	      0.79344703	      1.25744529	      1.59563825	     -1.13833296	     -0.76144101
      0.48366667	     -1.06678470	      3.72951310	     -2.76390509	     -0.73053936	      1.05511352	      0.31214377	     21.55516359	      0.33399371	     -3.99738004	     -5.30150203	      0.94814739	     -3.51777919	      0.65912098	     -7.51778737	      7.58540463	     -4.79657977	    -19.75643243	      8.03145746	      1.24086245	      1.46981269	      1.53718743	     -1.12539024	     -0.75256232
      0.48783333	     -1.00905920	      3.66533642	     -2.75208836	     -0.72437790	      1.05505346	      0.31236311	     21.39455992	      0.41659417	     -3.90585231	     -5.75009546	      0.80395452	     -3.52680023	      0.68495639	     -7.26178225	      7.37212889	     -5.18095928	    -21.07067321	      7.75835810	      1.41984939	      1.53417730	      1.43542507	     -1.01794386	     -0.76959952
      0.49200000	     -0.89138525	      3.64948439	     -2.88224672	     -0.71839140	      1.05500171	      0.31286050	     21.20079725	      0.50106187	     -3.55643654	     -6.21304675	      0.40398742	     -3.75374554	      0.75020732	     -7.03006778	      7.21162493	     -5.68648409	    -22.39196747	      7.06679257	      2.20047987	      1.72189583	      1.37659926	     -0.95631868	     -0.77903784
      0.49616667	     -0.81482614	      3.52611119	     -2.82593474	     -0.71214979	      1.05503789	      0.31316849	     20.96595789	      0.63705363	     -3.41326985	     -6.58251150	      0.24283404	     -3.81732867	      0.77642667	     -6.72881724	      6.88911612	     -6.06963180	    -23.84400933	      6.78210151	      2.40247252	      1.79842630	      1.31062244	     -0.88860657	     -0.77554225
      0.50033333	     -0.70032251	      3.43189175	     -2.92523622	     -0.70602653	      1.05505217	      0.31397801	     20.69429244	      0.82310465	     -2.85117083	     -6.90953106	     -0.34894989	     -4.60786591	      0.90054279	     -6.43629089	      6.57339506	     -6.62047704	    -25.28893121	      5.99694780	      3.45828219	      2.21849488	      1.39861749	     -0.87805647	     -0.70614502
      0.50450000	     -0.63201553	      3.34108991	     -2.92404393	     -0.70000575	      1.05502119	      0.31422710	     20.52639487	      0.92544336	     -2.77153149	     -7.37011813	     -0.49806749	     -4.65568421	      0.92647669	     -6.04013787	      6.28989931	     -6.98388114	    -26.85405119	      5.67182554	      3.58996916	      2.30107387	      1.21882015	     -0.69647611	     -0.72604923
      0.50866667	     -0.53318497	      3.23009813	     -2.97268233	     -0.69394618	      1.05503670	      0.31482833	     20.28499698	      1.09060216	     -2.41369831	     -7.73447707	     -1.01634039	     -5.27943624	      1.04139260	     -5.65846822	      5.94651333	     -7.40933294	    -28.40236800	      4.64256352	      4.30350748	      2.71869174	      1.28156962	     -0.63305102	     -0.65404124
      0.51283333	     -0.47034336	      3.15282960	     -2.99386374	     -0.68813354	      1.05496654	      0.31510204	     20.13702642	      1.17869618	     -2.21543042	     -8.19874354	     -1.26954998	     -5.51034677	      1.10529528	     -5.17673594	      5.66372776	     -7.71465815	    -30.05162291	      4.01703585	      4.58348206	      2.95210691	      1.09094563	     -0.36646428	     -0.66380494
      0.51700000	     -0.39816630	      3.00797763	     -2.97866729	     -0.68213210	      1.05496422	      0.31550787	     19.93113489	      1.34173501	     -2.04609183	     -8.59937785	     -1.55747454	     -5.78707481	      1.17199310	     -4.69620959	      5.27260856	     -8.01888502	    -31.72138394	      3.15283323	      4.92381531	      3.20564706	      1.02527397	     -0.21199251	     -0.63707343
      0.52116667	     -0.32590774	      2.85923852	     -2.96900826	     -0.67619864	      1.05495354	      0.31587363	     19.73216692	      1.50294562	     -1.89047894	     -9.00947565	     -1.82240758	     -6.08879504	      1.23994905	     -4.18348742	      4.87925216	     -8.28463863	    -33.42857820	      2.31081246	      5.17887675	      3.47413020	      0.96675350	     -0.02708315	     -0.60997777
      0.52533333	     -0.23944207	      2.68425664	     -2.95775000	     -0.67027708	      1.05497119	      0.31623606	     19.51595504	      1.68882997	     -1.77452410	     -9.42064746	     -2.08005004	     -6.43946044	      1.32035963	     -3.66345081	      4.45183528	     -8.52821426	    -35.15553556	      1.38999583	      5.38837114	      3.80173305	      0.91739291	      0.16635250	     -0.57129244
      0.52950000	     -0.24888538	      2.48072398	     -2.92340213	     -0.66425822	      1.05486620	      0.31677074	     19.36157301	      1.92355599	     -1.53033563	     -9.75718736	     -2.47315009	     -7.12572984	      1.56379971	     -3.01931630	      3.96182762	     -8.75024976	    -36.92105470	      0.45851716	      5.34640757	      4.82032636	      1.09864054	      0.27441343	     -0.43160596
      0.53366667	     -0.14222917	      2.30089596	     -2.92929728	     -0.65849964	      1.05489022	      0.31692340	     19.16704632	      2.08901478	     -1.64310352	    -10.25159860	     -2.51792815	     -7.13784181	      1.66798911	     -2.46850982	      3.55641774	     -8.90844309	    -38.68238892	     -0.41406036	      5.54341306	      5.22987919	      0.92397861	      0.57571211	     -0.43594004
      0.53783333	     -0.23112352	      2.14252813	     -2.96904241	     -0.65274088	      1.05460272	      0.31732477	     19.16277078	      2.27534655	     -1.45149521	    -10.68237765	     -2.89797001	     -7.66436914	      2.28719923	     -1.67760027	      3.14509047	     -9.10890320	    -40.47323589	     -1.42714295	      4.88496521	      7.80531674	      1.04167338	      0.78892113	     -0.32497090
